<svg width="895" height="895" viewBox="0 0 895 895" fill="none" xmlns="http://www.w3.org/2000/svg">
<rect width="895" height="895" fill="black"/>
<path d="M380.79 189.029C421.229 162.325 473.701 162.325 514.14 189.029C531.143 200.258 545.035 215.598 554.528 233.628L781.952 665.571C791.275 683.278 790.861 704.531 780.855 721.861C770.445 739.892 751.206 751 730.385 751H662.099C656.813 751 651.551 750.307 646.445 748.939C629.806 744.481 615.857 733.139 608.099 717.759L470.471 444.948C461.059 425.882 433.871 425.882 424.459 444.948L286.831 717.759C279.072 733.139 265.124 744.481 248.485 748.939C243.379 750.307 238.116 751 232.83 751H164.545C143.724 751 124.485 739.892 114.075 721.861C104.069 704.531 103.654 683.278 112.978 665.571L340.401 233.628C349.894 215.598 363.786 200.258 380.79 189.029Z" fill="var(--foreground)" fill-opacity="0.4"/>
<path d="M407.522 193.008C432.972 181.802 461.958 181.802 487.407 193.008C506.787 201.541 522.924 216.055 533.456 234.426L780.597 665.528C790.709 683.166 790.676 704.852 780.51 722.459C770.313 740.12 751.469 751 731.076 751H692.359C687.18 751 682.024 750.321 677.021 748.98C660.322 744.506 646.41 732.963 638.931 717.377L505.376 439.081C502.394 432.869 498.773 426.985 494.57 421.524C470.776 390.606 424.153 390.606 400.359 421.524C396.157 426.985 392.535 432.869 389.554 439.082L255.999 717.378C248.519 732.963 234.607 744.506 217.909 748.98C212.906 750.321 207.749 751 202.57 751H163.854C143.461 751 124.617 740.12 114.42 722.459C104.254 704.852 104.221 683.166 114.333 665.528L361.474 234.426C372.005 216.055 388.143 201.541 407.522 193.008Z" fill="var(--foreground)" stroke="black" stroke-opacity="0.2" stroke-width="1.6795"/>
</svg>
